<svg width="26" height="23" viewBox="0 0 26 23" fill="none" xmlns="http://www.w3.org/2000/svg">
<path d="M22.3466 16.6023C22.9636 16.2885 23.2001 16.324 23.6391 16.765C23.9716 17.0968 24.3055 17.4266 24.6345 17.7605C25.0115 18.1423 25.0192 18.5771 24.6442 18.9534C23.522 20.0799 22.3967 21.203 21.2684 22.323C20.8921 22.6965 20.4546 22.6875 20.0734 22.3118C19.7332 21.9766 19.3965 21.6371 19.0585 21.2997C18.6599 20.9011 18.6161 20.6792 18.8637 20.0935C18.6481 19.9781 18.4359 19.8264 18.2001 19.7457C17.789 19.6066 17.3292 19.5857 16.948 19.3937C16.3219 19.0786 15.682 19.1677 15.042 19.1663C11.2069 19.1584 7.37171 19.157 3.53656 19.1621C2.74426 19.1621 2.1662 18.7614 1.98256 18.0728C1.93662 17.8789 1.91558 17.68 1.91996 17.4808C1.91439 16.0826 1.91996 14.6851 1.91996 13.2877V12.9712C1.8504 12.9496 1.79266 12.9322 1.73562 12.9169C1.33634 12.8077 1.0887 12.526 1.08592 12.11C1.07618 10.7188 1.07618 9.32985 1.08592 7.94326C1.08592 7.47094 1.36416 7.19339 1.90465 7.08697C1.90952 6.99445 1.91996 6.89428 1.91996 6.79342C1.91996 5.10934 1.91996 3.42526 1.91996 1.74118C1.91996 0.906446 2.3895 0.313784 3.15258 0.165619C3.28129 0.144466 3.41175 0.135847 3.54213 0.139881H19.745C20.7578 0.139881 21.3728 0.747847 21.3735 1.75509C21.3735 5.75672 21.3721 9.75881 21.3693 13.7614C21.3693 13.961 21.4152 14.1127 21.5724 14.2337C21.6204 14.2699 21.6552 14.3234 21.7032 14.361C22.275 14.8041 22.4412 15.3766 22.2882 16.0729C22.2541 16.2287 22.3223 16.4075 22.3466 16.6023ZM2.52166 7.10158H2.86947C5.64311 7.10158 8.41652 7.10158 11.1897 7.10158C11.8192 7.10158 12.1329 7.42016 12.1329 8.04761C12.1329 9.34052 12.1329 10.6337 12.1329 11.927C12.1329 12.6407 11.8324 12.9426 11.1215 12.9426H2.50636V13.2404C2.50636 14.6636 2.50636 16.087 2.50636 17.5107C2.50636 18.2516 2.84443 18.5841 3.5943 18.5841H16.0945C16.0541 18.1083 15.9978 17.702 15.6479 17.332C14.6851 16.3184 13.7697 15.2583 12.8397 14.2163C12.3931 13.7169 12.3708 13.0901 12.7826 12.6435C13.1944 12.1969 13.7927 12.1615 14.3366 12.5538C14.9418 12.9906 15.5477 13.4275 16.1452 13.8755C16.2844 13.9791 16.3797 13.9937 16.532 13.8956C17.1156 13.5193 17.7145 13.1611 18.3023 12.7966C19.0494 12.3354 19.7527 12.4181 20.3794 13.04L20.778 13.4344V4.86796H2.52097L2.52166 7.10158ZM2.52166 4.244H20.794C20.794 3.38422 20.794 2.54322 20.794 1.70292C20.794 1.09078 20.4149 0.716545 19.7972 0.716545C14.3622 0.716545 8.9271 0.716545 3.49204 0.716545C2.88964 0.716545 2.51471 1.08592 2.50914 1.6904C2.50219 2.47992 2.50914 3.27014 2.50914 4.06036C2.50706 4.11601 2.5161 4.17652 2.52166 4.244ZM21.9293 17.0349C21.8423 16.7518 21.7359 16.4972 21.6928 16.2329C21.6628 16.0506 21.7108 15.8531 21.7428 15.6653C21.7908 15.3822 21.6962 15.1651 21.4931 14.9697C20.9881 14.4827 20.4956 13.9784 19.9968 13.4824C19.5294 13.0164 19.1364 12.9705 18.5771 13.3155C17.9197 13.7203 17.2596 14.1217 16.6071 14.5356C16.4033 14.6657 16.2364 14.6747 16.0416 14.5182C15.7557 14.2921 15.4538 14.0869 15.1589 13.8727C14.7512 13.577 14.3478 13.2765 13.936 12.9872C13.6807 12.8077 13.3927 12.8418 13.207 13.0525C13.0212 13.2633 13.0261 13.5269 13.2146 13.7628C13.2842 13.8511 13.3614 13.9339 13.4372 14.0181C14.2998 14.9808 15.1505 15.956 16.0325 16.9014C16.3838 17.2777 16.6489 17.6603 16.6426 18.1931C16.6377 18.6174 16.877 18.799 17.2784 18.9124C17.967 19.1058 18.7447 19.1058 19.2379 19.7165L21.9293 17.0349ZM6.62021 7.68241H2.10708C1.7078 7.68241 1.66675 7.72137 1.66675 8.10813C1.66675 9.38481 1.66675 10.6601 1.66675 11.934C1.66675 12.3055 1.71962 12.359 2.08412 12.359H11.1396C11.4874 12.359 11.5528 12.2964 11.557 11.9535V8.10256C11.557 7.72763 11.5125 7.68519 11.1396 7.68519L6.62021 7.68241ZM24.3583 18.3615C24.3148 18.2935 24.2667 18.2287 24.2143 18.1674C23.8603 17.8098 23.4993 17.4579 23.1487 17.0968C23.0026 16.9466 22.8836 16.9403 22.7313 17.092C21.6216 18.2049 20.5086 19.3154 19.3924 20.4233C19.2532 20.5624 19.2477 20.6785 19.3924 20.8191C19.7587 21.1766 20.1211 21.5386 20.4796 21.9049C20.6243 22.0524 20.7411 22.0294 20.8768 21.8931C21.987 20.7801 23.0984 19.669 24.2109 18.5597C24.2661 18.4977 24.3164 18.4314 24.3611 18.3615H24.3583Z" fill="#1A73E8" stroke="#1A73E8" stroke-width="0.625281" stroke-miterlimit="10"/>
</svg>
