<svg width="25" height="24" viewBox="0 0 25 24" fill="none" xmlns="http://www.w3.org/2000/svg">
<path d="M15.8896 8.72727C16.5112 8.72727 17.1073 8.98588 17.5469 9.44619C17.9864 9.90651 18.2333 10.5308 18.2333 11.1818V17.9989C18.2333 19.5905 17.6296 21.1169 16.555 22.2423C15.4804 23.3677 14.0229 24 12.5031 24C10.9834 24 9.52588 23.3677 8.45126 22.2423C7.37663 21.1169 6.77292 19.5905 6.77292 17.9989V11.1818C6.77292 10.5308 7.01985 9.90651 7.45939 9.44619C7.89892 8.98588 8.49507 8.72727 9.11667 8.72727H15.8896ZM15.8896 10.3636H9.11667C8.90947 10.3636 8.71075 10.4498 8.56424 10.6033C8.41773 10.7567 8.33542 10.9648 8.33542 11.1818V17.9989C8.33542 19.1565 8.77451 20.2667 9.55611 21.0852C10.3377 21.9038 11.3978 22.3636 12.5031 22.3636C13.6085 22.3636 14.6685 21.9038 15.4501 21.0852C16.2317 20.2667 16.6708 19.1565 16.6708 17.9989V11.1818C16.6708 10.9648 16.5885 10.7567 16.442 10.6033C16.2955 10.4498 16.0968 10.3636 15.8896 10.3636ZM2.34375 8.72727H6.67292C6.25459 9.18319 5.96069 9.74828 5.82188 10.3636H2.34375C2.13655 10.3636 1.93784 10.4498 1.79132 10.6033C1.64481 10.7567 1.5625 10.9648 1.5625 11.1818V16.908C1.56209 17.4555 1.69283 17.9943 1.94274 18.4752C2.19266 18.956 2.55377 19.3635 2.993 19.6604C3.43224 19.9573 3.93556 20.134 4.4569 20.1744C4.97823 20.2148 5.50091 20.1176 5.97708 19.8916C6.11563 20.4262 6.31458 20.9345 6.56458 21.4102C5.85092 21.7368 5.0708 21.8721 4.2947 21.8037C3.51861 21.7354 2.77101 21.4656 2.11945 21.0187C1.4679 20.5719 0.932929 19.962 0.562885 19.2443C0.192841 18.5266 -0.000613977 17.7237 1.46385e-06 16.908V11.1818C1.46385e-06 10.5308 0.246932 9.90651 0.68647 9.44619C1.12601 8.98588 1.72215 8.72727 2.34375 8.72727ZM22.6563 8.72727C23.2779 8.72727 23.874 8.98588 24.3135 9.44619C24.7531 9.90651 25 10.5308 25 11.1818V16.9091C25.0003 17.7242 24.8068 18.5265 24.437 19.2437C24.0672 19.9609 23.5327 20.5704 22.8817 21.0171C22.2307 21.4639 21.4838 21.7338 20.7082 21.8026C19.9327 21.8714 19.1531 21.7369 18.4396 21.4113L18.4979 21.3C18.7208 20.8571 18.901 20.3869 19.0302 19.8938C19.5061 20.1181 20.0281 20.214 20.5485 20.1727C21.0689 20.1314 21.5712 19.9543 22.0094 19.6575C22.4477 19.3607 22.808 18.9537 23.0574 18.4736C23.3069 17.9935 23.4375 17.4557 23.4375 16.9091V11.1818C23.4375 10.965 23.3553 10.7571 23.209 10.6037C23.0628 10.4503 22.8643 10.3639 22.6573 10.3636H19.1854C19.0463 9.74817 18.752 9.18306 18.3333 8.72727H22.6563ZM12.5 0C12.9788 -1.05664e-08 13.4529 0.0987601 13.8952 0.290642C14.3375 0.482523 14.7394 0.763769 15.078 1.11832C15.4165 1.47287 15.6851 1.89378 15.8683 2.35703C16.0515 2.82027 16.1458 3.31677 16.1458 3.81818C16.1458 4.31959 16.0515 4.81609 15.8683 5.27934C15.6851 5.74258 15.4165 6.16349 15.078 6.51804C14.7394 6.87259 14.3375 7.15384 13.8952 7.34572C13.4529 7.5376 12.9788 7.63636 12.5 7.63636C11.5331 7.63636 10.6057 7.23409 9.92201 6.51804C9.23828 5.802 8.85417 4.83083 8.85417 3.81818C8.85417 2.80554 9.23828 1.83437 9.92201 1.11832C10.6057 0.402272 11.5331 2.13399e-08 12.5 0ZM20.8365 1.09091C21.2468 1.09091 21.6532 1.17556 22.0323 1.34003C22.4115 1.5045 22.756 1.74557 23.0462 2.04947C23.3364 2.35337 23.5665 2.71415 23.7236 3.11122C23.8806 3.50828 23.9615 3.93386 23.9615 4.36364C23.9615 4.79342 23.8806 5.21899 23.7236 5.61606C23.5665 6.01312 23.3364 6.3739 23.0462 6.6778C22.756 6.98171 22.4115 7.22277 22.0323 7.38724C21.6532 7.55171 21.2468 7.63636 20.8365 7.63636C20.0077 7.63636 19.2128 7.29156 18.6268 6.6778C18.0407 6.06405 17.7115 5.23162 17.7115 4.36364C17.7115 3.49566 18.0407 2.66322 18.6268 2.04947C19.2128 1.43571 20.0077 1.09091 20.8365 1.09091ZM4.16354 1.09091C4.57392 1.09091 4.98029 1.17556 5.35943 1.34003C5.73857 1.5045 6.08307 1.74557 6.37325 2.04947C6.66343 2.35337 6.89362 2.71415 7.05067 3.11122C7.20771 3.50828 7.28854 3.93386 7.28854 4.36364C7.28854 4.79342 7.20771 5.21899 7.05067 5.61606C6.89362 6.01312 6.66343 6.3739 6.37325 6.6778C6.08307 6.98171 5.73857 7.22277 5.35943 7.38724C4.98029 7.55171 4.57392 7.63636 4.16354 7.63636C3.33474 7.63636 2.53989 7.29156 1.95383 6.6778C1.36778 6.06405 1.03854 5.23162 1.03854 4.36364C1.03854 3.49566 1.36778 2.66322 1.95383 2.04947C2.53989 1.43571 3.33474 1.09091 4.16354 1.09091ZM12.5 1.63636C11.9475 1.63636 11.4176 1.86623 11.0269 2.2754C10.6362 2.68457 10.4167 3.23953 10.4167 3.81818C10.4167 4.39684 10.6362 4.95179 11.0269 5.36096C11.4176 5.77013 11.9475 6 12.5 6C13.0525 6 13.5824 5.77013 13.9731 5.36096C14.3638 4.95179 14.5833 4.39684 14.5833 3.81818C14.5833 3.23953 14.3638 2.68457 13.9731 2.2754C13.5824 1.86623 13.0525 1.63636 12.5 1.63636ZM20.8365 2.72727C20.6313 2.72727 20.4281 2.7696 20.2385 2.85183C20.0489 2.93407 19.8767 3.0546 19.7316 3.20655C19.5865 3.3585 19.4714 3.53889 19.3929 3.73743C19.3144 3.93596 19.274 4.14875 19.274 4.36364C19.274 4.57853 19.3144 4.79131 19.3929 4.98985C19.4714 5.18838 19.5865 5.36877 19.7316 5.52072C19.8767 5.67267 20.0489 5.7932 20.2385 5.87544C20.4281 5.95767 20.6313 6 20.8365 6C21.2509 6 21.6483 5.8276 21.9413 5.52072C22.2343 5.21384 22.399 4.79763 22.399 4.36364C22.399 3.92965 22.2343 3.51343 21.9413 3.20655C21.6483 2.89967 21.2509 2.72727 20.8365 2.72727ZM4.16354 2.72727C3.95835 2.72727 3.75517 2.7696 3.5656 2.85183C3.37603 2.93407 3.20378 3.0546 3.05869 3.20655C2.9136 3.3585 2.7985 3.53889 2.71998 3.73743C2.64146 3.93596 2.60104 4.14875 2.60104 4.36364C2.60104 4.57853 2.64146 4.79131 2.71998 4.98985C2.7985 5.18838 2.9136 5.36877 3.05869 5.52072C3.20378 5.67267 3.37603 5.7932 3.5656 5.87544C3.75517 5.95767 3.95835 6 4.16354 6C4.57794 6 4.97537 5.8276 5.2684 5.52072C5.56142 5.21384 5.72604 4.79763 5.72604 4.36364C5.72604 3.92965 5.56142 3.51343 5.2684 3.20655C4.97537 2.89967 4.57794 2.72727 4.16354 2.72727Z" fill="#1A73E8"/>
</svg>
